<svg xmlns="http://www.w3.org/2000/svg" viewBox="0 0 75 16"><defs><style>.a,.b{fill:none;stroke-miterlimit:10;}.a{stroke:#9c6;}.b{stroke:#c0bba9;}.c{fill:#9c6;}.d{fill:#706a6a;}</style></defs><title>avocado</title><path class="a" d="M67.69,4.63A3.36,3.36,0,0,0,70.77,9.5H71a3.36,3.36,0,0,0,3.08-4.87l-.29-.53L73.24,3h0a4.8,4.8,0,0,1-.44-1.14,2,2,0,0,0-3.8,0A4.8,4.8,0,0,1,68.56,3h0L68,4.1Z"/><circle class="b" cx="70.9" cy="5.94" r="1.44"/><path class="c" d="M67.3,6.14A3.46,3.46,0,0,0,70.77,9.5h.13V.5A1.94,1.94,0,0,0,69,1.88,4.8,4.8,0,0,1,68.56,3L68,4.1l-.29.53A3.12,3.12,0,0,0,67.3,6.14Z"/><path class="d" d="M62.08.67a4.2,4.2,0,0,1,1.45,1.81A6.43,6.43,0,0,1,64,5a6.5,6.5,0,0,1-.48,2.54,4.23,4.23,0,0,1-1.45,1.8,3.92,3.92,0,0,1-2.3.66H56.27a.7.7,0,0,1-.49-.2.68.68,0,0,1-.2-.49V.69a.68.68,0,0,1,.2-.49.7.7,0,0,1,.49-.2h3.51A3.86,3.86,0,0,1,62.08.67Zm-.25,7A4.53,4.53,0,0,0,62.56,5a4.45,4.45,0,0,0-.74-2.64,2.49,2.49,0,0,0-2.18-1H57V8.69h2.64A2.51,2.51,0,0,0,61.83,7.65Z"/><path class="d" d="M53,9.35a.67.67,0,0,1-.19.47.64.64,0,0,1-.45.18A.6.6,0,0,1,52,9.88a.78.78,0,0,1-.26-.33l-.88-2.08H46.47l-.86,2.09A.6.6,0,0,1,45,10a.61.61,0,0,1-.46-.16.57.57,0,0,1-.15-.42,1.76,1.76,0,0,1,0-.23L48.05.44A.71.71,0,0,1,48.32.1a.56.56,0,0,1,.4-.09.66.66,0,0,1,.39.11.61.61,0,0,1,.24.32l3.59,8.64A.76.76,0,0,1,53,9.35ZM47,6.18h3.3l-1.66-4Z"/><path class="d" d="M41.51,1.23a.74.74,0,0,1-.16.46.55.55,0,0,1-.46.22.75.75,0,0,1-.38-.1,3.8,3.8,0,0,0-1.87-.48,3.63,3.63,0,0,0-1.85.46,3.17,3.17,0,0,0-1.25,1.29A4,4,0,0,0,35.1,5a4,4,0,0,0,.46,2,3.13,3.13,0,0,0,1.27,1.28,3.76,3.76,0,0,0,1.81.44,3.61,3.61,0,0,0,1.87-.5.74.74,0,0,1,.36-.09.58.58,0,0,1,.49.24.72.72,0,0,1,.17.45.59.59,0,0,1-.09.31.69.69,0,0,1-.25.23A5.36,5.36,0,0,1,40,9.82a5.13,5.13,0,0,1-1.33.18,5.26,5.26,0,0,1-2.49-.6,4.52,4.52,0,0,1-1.81-1.74A5.21,5.21,0,0,1,33.66,5a5.09,5.09,0,0,1,.65-2.55A4.71,4.71,0,0,1,36.1.65a5.22,5.22,0,0,1,5.08,0A.6.6,0,0,1,41.51,1.23Z"/><path class="a" d="M23.28,4.63A3.37,3.37,0,0,0,26.36,9.5h.27A3.36,3.36,0,0,0,29.7,4.63l-.28-.53L28.83,3h0a5.27,5.27,0,0,1-.44-1.14A1.94,1.94,0,0,0,26.49.5,1.92,1.92,0,0,0,24.6,1.88,5.3,5.3,0,0,1,24.15,3h0L23.57,4.1Z"/><circle class="b" cx="26.49" cy="5.94" r="1.44"/><path class="c" d="M22.89,6.14A3.47,3.47,0,0,0,26.36,9.5h.13V.5A1.92,1.92,0,0,0,24.6,1.88,5.3,5.3,0,0,1,24.15,3L23.57,4.1l-.29.53A3.23,3.23,0,0,0,22.89,6.14Z"/><path class="d" d="M19.52.2a.58.58,0,0,1,.21.45.81.81,0,0,1-.07.32L16,9.56a.85.85,0,0,1-.29.33.76.76,0,0,1-.38.11A.73.73,0,0,1,15,9.88a.75.75,0,0,1-.27-.31L11.11,1a.67.67,0,0,1-.06-.3.58.58,0,0,1,.22-.48A.67.67,0,0,1,11.74,0a.65.65,0,0,1,.62.46l3.11,7.33L18.4.44a.82.82,0,0,1,.27-.31A.6.6,0,0,1,19,0,.73.73,0,0,1,19.52.2Z"/><path class="d" d="M8.58,9.35a.63.63,0,0,1-.19.47.64.64,0,0,1-.45.18.6.6,0,0,1-.36-.12.87.87,0,0,1-.26-.33L6.44,7.47H2.07L1.2,9.56A.6.6,0,0,1,1,9.89.66.66,0,0,1,.61,10a.58.58,0,0,1-.45-.16A.54.54,0,0,1,0,9.42a1.76,1.76,0,0,1,0-.23L3.64.44A.77.77,0,0,1,3.91.1.58.58,0,0,1,4.32,0,.63.63,0,0,1,4.7.12a.61.61,0,0,1,.24.32l3.6,8.64A.77.77,0,0,1,8.58,9.35Zm-6-3.17H5.9l-1.65-4Z"/><path class="d" d="M32.29,16V13h.34v2.61h1.28V16Z"/><path class="d" d="M36.65,16,36.29,15H35.12l-.36.93h-.34L35.57,13h.29L37,16Zm-.47-1.23-.34-.91a3.6,3.6,0,0,1-.13-.42,2.83,2.83,0,0,1-.13.42l-.34.91Z"/><path class="d" d="M40.09,16h-.38l-1.6-2.45h0a7.59,7.59,0,0,1,0,.79V16h-.32V13h.39l1.59,2.44h0s0-.15,0-.35a3.11,3.11,0,0,1,0-.41V13h.31Z"/><path class="d" d="M42.59,14.43h1v1.42a2.66,2.66,0,0,1-.47.11,3.13,3.13,0,0,1-.56,0,1.36,1.36,0,0,1-1-.39,1.62,1.62,0,0,1-.37-1.11,1.71,1.71,0,0,1,.18-.8,1.33,1.33,0,0,1,.53-.52,1.73,1.73,0,0,1,.81-.18,2.29,2.29,0,0,1,.87.17l-.14.3a1.94,1.94,0,0,0-.76-.17,1.1,1.1,0,0,0-.83.32,1.24,1.24,0,0,0-.3.88,1.3,1.3,0,0,0,.29.9,1.11,1.11,0,0,0,.85.3,2.32,2.32,0,0,0,.59-.07v-.9h-.65Z"/><path class="d" d="M46.89,13v1.89a1,1,0,0,1-.3.78,1.16,1.16,0,0,1-.83.29,1.1,1.1,0,0,1-.81-.29,1,1,0,0,1-.29-.79V13H45V15a.73.73,0,0,0,.2.56.8.8,0,0,0,.58.19.77.77,0,0,0,.57-.19.75.75,0,0,0,.2-.57V13Z"/><path class="d" d="M49.91,16,49.54,15H48.37L48,16h-.35L48.83,13h.28L50.26,16Zm-.47-1.23-.34-.91c0-.11-.09-.25-.14-.42q0,.19-.12.42l-.35.91Z"/><path class="d" d="M52.35,14.43h1v1.42a2.47,2.47,0,0,1-.47.11,3,3,0,0,1-.55,0,1.34,1.34,0,0,1-1-.39,1.57,1.57,0,0,1-.37-1.11,1.71,1.71,0,0,1,.18-.8,1.27,1.27,0,0,1,.53-.52,1.66,1.66,0,0,1,.8-.18,2.29,2.29,0,0,1,.87.17l-.13.3a2,2,0,0,0-.76-.17,1.08,1.08,0,0,0-.83.32,1.24,1.24,0,0,0-.3.88,1.25,1.25,0,0,0,.29.9,1.1,1.1,0,0,0,.84.3,2.46,2.46,0,0,0,.6-.07v-.9h-.66Z"/><path class="d" d="M56.08,16H54.45V13h1.63v.3H54.79v.94H56v.3H54.79v1.08h1.29Z"/><path class="d" d="M59.86,13.3a1,1,0,0,0-.76.32,1.29,1.29,0,0,0-.28.88,1.33,1.33,0,0,0,.27.89,1,1,0,0,0,.76.31,2.73,2.73,0,0,0,.7-.11v.3a2.28,2.28,0,0,1-.75.11,1.25,1.25,0,0,1-1-.39,1.57,1.57,0,0,1-.35-1.11,1.77,1.77,0,0,1,.16-.79,1.32,1.32,0,0,1,.49-.53,1.49,1.49,0,0,1,.75-.18,1.81,1.81,0,0,1,.8.17l-.14.29A1.6,1.6,0,0,0,59.86,13.3Z"/><path class="d" d="M63.22,16H61.59V13h1.63v.3H61.93v.94h1.21v.3H61.93v1.08h1.29Z"/><path class="d" d="M66.56,16h-.39l-1.6-2.45h0c0,.29,0,.55,0,.79V16h-.31V13h.38l1.59,2.44h0s0-.15,0-.35,0-.33,0-.41V13h.32Z"/><path class="d" d="M68.67,16h-.34V13.34H67.4V13h2.19v.3h-.92Z"/><path class="d" d="M70.78,14.75V16h-.34V13h.8a1.22,1.22,0,0,1,.79.21.74.74,0,0,1,.26.62.78.78,0,0,1-.59.78L72.49,16h-.4l-.7-1.21Zm0-.29h.46a.78.78,0,0,0,.53-.15.54.54,0,0,0,.17-.43.48.48,0,0,0-.17-.41.91.91,0,0,0-.55-.13h-.44Z"/><path class="d" d="M75,16H73.37V13H75v.3H73.71v.94h1.21v.3H73.71v1.08H75Z"/></svg>